<?xml version="1.0" encoding="UTF-8"?>
<svg version="1.1" viewBox="0 0 952 896" width="238" height="224" xmlns="http://www.w3.org/2000/svg">
<path transform="translate(31,15)" d="m0 0h874l42 1v28l-3 21-5 18-11 25-7 12-12 16-9 10-13 13-17 13-19 11-16 7-22 7-23 5-9 1-31 1h-142l-7 16-9 17-11 23-10 19-6 14-10 19-5 11-18 35-8 15-1 3 11-2 54-4 32-2 17-2 33-3 51-3 18-2v3l-9 11-9 12-11 15-11 14-9 12-10 13-9 12-7 9-12 16-8 10-8 12-10 13-8 11-9 11-8 11-10 13-12 16-11 14-24 33-8 10-9 12-10 13-12 16-8 10-10 14h-2l-2 4-8 11-20 26-13 16-11 14-18 22-11 13-8 10-22 26-12 14-10 11-8 10-9 10-9 11-4 4h-4l2-12 15-63 9-39 6-24 7-30 10-40 13-56 16-67 2-8-51 4-48 3-84 6-2-2 6-11 8-16 10-18 19-38 10-19 14-27 8-16 14-29 10-19 16-32 8-15 16-32 23-45 24-48 10-19 8-16 14-29 10-19 26-52h-376l8 16 9 14 11 13 7 7 13 10 22 12 17 6 19 3 11 1 148 1v4l-6 10-12 22-8 16-3 1-130-1-16-2-26-7-21-8-20-11-19-14-13-12-12-13-12-17-8-13-9-21-4-13-4-22zm493 52-8 14-8 17-7 12-7 16-12 22-40 80-14 27-8 16-12 23-8 16-9 17-11 23-9 17-9 19-9 16-8 17-10 19-11 22-10 19-13 26-4 6v2h14l47-4 40-3 45-3 16-2h5l-5 20-6 26-22 88-8 30-5 24-4 13 4-1 7-10 11-14 12-16 39-51 1-3h2l8-12 14-18 10-14 14-18 8-11 8-10 8-11 9-12 8-11 9-11 10-14 10-13 11-15 10-13 5-8-5-1-21 2-76 5-90 7 15-29 20-40 7-15 13-25 6-14 10-19 13-27 11-23 8-17 9-17 6-14 10-19 8-16 4-2 189-1 22-2 16-4 19-8 15-9 13-10 11-11 9-12 10-17 3-9-19-1z" fill="white"/>
</svg>
